<mxfile host="app.diagrams.net" modified="2024-05-18T06:31:09.227Z" agent="Mozilla/5.0 (Windows NT 10.0; Win64; x64) AppleWebKit/537.36 (KHTML, like Gecko) Chrome/124.0.0.0 Safari/537.36" etag="eVgrvGN217pVpjzw8UHF" version="24.4.4" type="github">
  <diagram name="Page-1" id="xZ-YRIHFcCnJFCcq-5QW">
    <mxGraphModel dx="1050" dy="1691" grid="1" gridSize="10" guides="1" tooltips="1" connect="1" arrows="1" fold="1" page="1" pageScale="1" pageWidth="827" pageHeight="1169" math="0" shadow="0">
      <root>
        <mxCell id="0" />
        <mxCell id="1" parent="0" />
        <mxCell id="SpilXbWmet112R0UB0ai-1" value="" style="rounded=0;whiteSpace=wrap;html=1;" vertex="1" parent="1">
          <mxGeometry x="30" y="-440" width="780" height="480" as="geometry" />
        </mxCell>
        <mxCell id="SpilXbWmet112R0UB0ai-2" value="" style="rounded=0;whiteSpace=wrap;html=1;" vertex="1" parent="1">
          <mxGeometry x="210" y="-330" width="420" height="260" as="geometry" />
        </mxCell>
        <mxCell id="SpilXbWmet112R0UB0ai-3" value="L&lt;span style=&quot;background-color: initial;&quot;&gt;ogin&lt;/span&gt;" style="text;html=1;align=center;verticalAlign=middle;whiteSpace=wrap;rounded=0;" vertex="1" parent="1">
          <mxGeometry x="390" y="-280" width="60" height="30" as="geometry" />
        </mxCell>
        <mxCell id="SpilXbWmet112R0UB0ai-4" value="User Name" style="text;html=1;align=center;verticalAlign=middle;whiteSpace=wrap;rounded=0;" vertex="1" parent="1">
          <mxGeometry x="290" y="-240" width="90" height="30" as="geometry" />
        </mxCell>
        <mxCell id="SpilXbWmet112R0UB0ai-5" value="" style="rounded=0;whiteSpace=wrap;html=1;" vertex="1" parent="1">
          <mxGeometry x="390" y="-235" width="130" height="20" as="geometry" />
        </mxCell>
        <mxCell id="SpilXbWmet112R0UB0ai-6" value="Password" style="text;html=1;align=center;verticalAlign=middle;whiteSpace=wrap;rounded=0;" vertex="1" parent="1">
          <mxGeometry x="305" y="-205" width="60" height="30" as="geometry" />
        </mxCell>
        <mxCell id="SpilXbWmet112R0UB0ai-7" value="" style="rounded=0;whiteSpace=wrap;html=1;" vertex="1" parent="1">
          <mxGeometry x="390" y="-195" width="130" height="20" as="geometry" />
        </mxCell>
        <mxCell id="SpilXbWmet112R0UB0ai-8" value="Logo" style="ellipse;whiteSpace=wrap;html=1;aspect=fixed;" vertex="1" parent="1">
          <mxGeometry x="403.75" y="-312.5" width="32.5" height="32.5" as="geometry" />
        </mxCell>
        <mxCell id="SpilXbWmet112R0UB0ai-9" value="Submit" style="rounded=0;whiteSpace=wrap;html=1;" vertex="1" parent="1">
          <mxGeometry x="425" y="-160" width="60" height="30" as="geometry" />
        </mxCell>
      </root>
    </mxGraphModel>
  </diagram>
</mxfile>
